<mxfile host="app.diagrams.net" modified="2021-02-08T04:04:29.589Z" agent="5.0 (Windows NT 10.0; Win64; x64) AppleWebKit/537.36 (KHTML, like Gecko) Chrome/87.0.4280.88 Safari/537.36" etag="ahbtqKLADoxf2W-hfeJb" version="14.2.9" type="github">
  <diagram id="EnJAleqlaP5paZQ_Zdzw" name="Page-1">
    <mxGraphModel dx="1422" dy="762" grid="1" gridSize="10" guides="1" tooltips="1" connect="1" arrows="1" fold="1" page="1" pageScale="1" pageWidth="827" pageHeight="1169" math="0" shadow="0">
      <root>
        <mxCell id="0" />
        <mxCell id="1" parent="0" />
        <mxCell id="im8xcgp2eIzORKNdVD8C-1" value="" style="whiteSpace=wrap;html=1;aspect=fixed;" vertex="1" parent="1">
          <mxGeometry x="80" y="110" width="280" height="280" as="geometry" />
        </mxCell>
        <mxCell id="im8xcgp2eIzORKNdVD8C-2" value="" style="whiteSpace=wrap;html=1;aspect=fixed;" vertex="1" parent="1">
          <mxGeometry x="505" y="130" width="280" height="280" as="geometry" />
        </mxCell>
        <mxCell id="im8xcgp2eIzORKNdVD8C-3" value="" style="rounded=1;whiteSpace=wrap;html=1;fillColor=#dae8fc;strokeColor=#6c8ebf;" vertex="1" parent="1">
          <mxGeometry x="110" y="160" width="210" height="210" as="geometry" />
        </mxCell>
        <mxCell id="im8xcgp2eIzORKNdVD8C-4" value="你的公司" style="text;html=1;strokeColor=none;fillColor=none;align=center;verticalAlign=middle;whiteSpace=wrap;rounded=0;" vertex="1" parent="1">
          <mxGeometry x="185" y="120" width="70" height="20" as="geometry" />
        </mxCell>
        <mxCell id="im8xcgp2eIzORKNdVD8C-5" value="李四的电脑" style="text;html=1;strokeColor=none;fillColor=none;align=center;verticalAlign=middle;whiteSpace=wrap;rounded=0;" vertex="1" parent="1">
          <mxGeometry x="175" y="170" width="90" height="20" as="geometry" />
        </mxCell>
        <mxCell id="im8xcgp2eIzORKNdVD8C-6" value="XShell5[远程登录软件]" style="text;html=1;strokeColor=none;fillColor=none;align=center;verticalAlign=middle;whiteSpace=wrap;rounded=0;" vertex="1" parent="1">
          <mxGeometry x="145" y="200" width="150" height="20" as="geometry" />
        </mxCell>
        <mxCell id="im8xcgp2eIzORKNdVD8C-7" value="XFtp5[上传和下载文件软件]" style="text;html=1;strokeColor=none;fillColor=none;align=center;verticalAlign=middle;whiteSpace=wrap;rounded=0;" vertex="1" parent="1">
          <mxGeometry x="145" y="240" width="150" height="20" as="geometry" />
        </mxCell>
        <mxCell id="im8xcgp2eIzORKNdVD8C-8" value="mysql安装文件" style="text;html=1;strokeColor=none;fillColor=none;align=center;verticalAlign=middle;whiteSpace=wrap;rounded=0;" vertex="1" parent="1">
          <mxGeometry x="175" y="290" width="90" height="20" as="geometry" />
        </mxCell>
        <mxCell id="im8xcgp2eIzORKNdVD8C-9" value="机房，电信，联通" style="text;html=1;strokeColor=none;fillColor=none;align=center;verticalAlign=middle;whiteSpace=wrap;rounded=0;" vertex="1" parent="1">
          <mxGeometry x="590" y="140" width="120" height="20" as="geometry" />
        </mxCell>
        <mxCell id="im8xcgp2eIzORKNdVD8C-10" value="" style="rounded=0;whiteSpace=wrap;html=1;fillColor=#f8cecc;strokeColor=#b85450;" vertex="1" parent="1">
          <mxGeometry x="590" y="190" width="120" height="60" as="geometry" />
        </mxCell>
        <mxCell id="im8xcgp2eIzORKNdVD8C-13" value="Linux系统" style="text;html=1;strokeColor=none;fillColor=none;align=center;verticalAlign=middle;whiteSpace=wrap;rounded=0;" vertex="1" parent="1">
          <mxGeometry x="610" y="194" width="70" height="20" as="geometry" />
        </mxCell>
        <mxCell id="im8xcgp2eIzORKNdVD8C-14" value="mysql安装文件" style="text;html=1;strokeColor=none;fillColor=none;align=center;verticalAlign=middle;whiteSpace=wrap;rounded=0;" vertex="1" parent="1">
          <mxGeometry x="605" y="223" width="90" height="20" as="geometry" />
        </mxCell>
        <mxCell id="im8xcgp2eIzORKNdVD8C-15" value="" style="endArrow=classic;html=1;exitX=1;exitY=0.5;exitDx=0;exitDy=0;entryX=0.25;entryY=0.286;entryDx=0;entryDy=0;entryPerimeter=0;" edge="1" parent="1" source="im8xcgp2eIzORKNdVD8C-6" target="im8xcgp2eIzORKNdVD8C-2">
          <mxGeometry width="50" height="50" relative="1" as="geometry">
            <mxPoint x="480" y="350" as="sourcePoint" />
            <mxPoint x="530" y="300" as="targetPoint" />
          </mxGeometry>
        </mxCell>
        <mxCell id="im8xcgp2eIzORKNdVD8C-18" value="" style="endArrow=classic;startArrow=classic;html=1;entryX=0.952;entryY=0.429;entryDx=0;entryDy=0;entryPerimeter=0;exitX=0;exitY=0.75;exitDx=0;exitDy=0;" edge="1" parent="1" source="im8xcgp2eIzORKNdVD8C-10" target="im8xcgp2eIzORKNdVD8C-3">
          <mxGeometry width="50" height="50" relative="1" as="geometry">
            <mxPoint x="480" y="350" as="sourcePoint" />
            <mxPoint x="530" y="300" as="targetPoint" />
          </mxGeometry>
        </mxCell>
      </root>
    </mxGraphModel>
  </diagram>
</mxfile>
